<svg width="16" height="22" viewBox="0 0 16 22" fill="none" xmlns="http://www.w3.org/2000/svg">
<path fill-rule="evenodd" clip-rule="evenodd" d="M1.13403 7.4318C1.17525 6.75644 1.74052 6.25 2.39837 6.25H13.8891C14.5522 6.25 15.1123 6.75893 15.1534 7.4318L15.1536 7.43486L15.8931 20.4236C15.9347 21.1608 15.3365 21.75 14.6285 21.75H1.66161C0.948282 21.75 0.355559 21.1585 0.397076 20.4239L1.13403 7.4318ZM2.61839 7.75L1.90935 20.25H14.3808L13.6691 7.75H2.61839Z" fill="#002D62"/>
<path fill-rule="evenodd" clip-rule="evenodd" d="M6.69473 3.09252C6.21407 4.0536 5.89502 5.43394 5.89502 7H4.39502C4.39502 5.2515 4.74787 3.63184 5.35316 2.42156C5.936 1.25616 6.87985 0.25 8.14502 0.25C9.41019 0.25 10.354 1.25616 10.9369 2.42156C11.5422 3.63184 11.895 5.2515 11.895 7H10.395C10.395 5.43394 10.076 4.0536 9.59531 3.09252C9.09221 2.08656 8.53605 1.75 8.14502 1.75C7.75399 1.75 7.19783 2.08656 6.69473 3.09252Z" fill="#002D62"/>
</svg>
