<?xml version="1.0" encoding="utf-8"?>
<!-- Generator: Adobe Illustrator 24.3.0, SVG Export Plug-In . SVG Version: 6.00 Build 0)  -->
<svg version="1.1" id="Layer_1" xmlns="http://www.w3.org/2000/svg" xmlns:xlink="http://www.w3.org/1999/xlink" x="0px" y="0px"
	 viewBox="0 0 512 512" style="enable-background:new 0 0 512 512;" xml:space="preserve">
<style type="text/css">
	.st0{fill:#AB965F;}
</style>
<g id="XMLID_1_">
	<path id="XMLID_3_" class="st0" d="M201.9,146.17c2.95-2.66,6.03-5.33,7.99-8.83c0.14,16.69,0,33.52,0.14,50.21
		c0,5.75,0,11.36-0.14,17.11c19.07,0,38.14,0,57.22,0c0-1.4,0-2.95,0.14-4.35c0.14-2.24-1.54-4.07-3.37-4.91
		c-3.09-1.54-6.45-1.68-9.82-1.68c-5.89,0-11.64,0.14-17.53,0c-1.26,0-2.52,0-3.79-0.28c-2.24-0.84-3.51-3.09-3.93-5.33
		c-0.42-1.96-0.28-4.21,0.84-5.89c0.56-0.84,1.26-1.4,2.1-1.82c1.26,2.52,4.21,3.09,6.73,3.51c7.57,0.84,15.15,0.28,22.72,0.14
		c4.49,0,9.12,1.54,12.06,5.05c3.65,4.35,4.63,10.24,4.35,15.71c5.05,0,10.24,0,15.29,0c-0.14-6.73,0-13.6-0.14-20.33
		c0-1.54-0.56-3.09-1.96-3.93c-1.12-0.84-2.8-1.26-3.37-2.66c-0.14-0.84-0.42-2.38,0.7-2.66c2.1-0.98,3.93-2.52,5.75-4.07
		c3.09-2.8,6.45-5.75,8.41-9.54c0,17.67,0,35.48,0,53.15c-8.27,0-16.55,0-24.96,0c0,2.8,0.14,5.75,1.26,8.41
		c0.42,1.12,1.4,1.82,2.24,2.52c-2.1,1.54-4.63,2.24-7.15,1.82c-2.1-0.42-4.07-1.54-5.19-3.51c-1.54-2.8-1.4-6.17-1.26-9.26
		c-22.16,0-44.46,0-66.61,0c-0.14-17.95,0.14-35.76-0.28-53.71c0-1.4-0.28-2.95-1.4-3.93c-1.12-1.26-3.23-1.4-4.07-2.95
		c-0.28-0.98-0.56-2.66,0.7-3.09C197.84,149.68,199.94,147.86,201.9,146.17z"/>
	<path id="XMLID_4_" class="st0" d="M364.16,136.92c1.68,3.23,4.35,5.75,7.01,8.13c2.38,2.1,4.77,4.21,7.57,5.47
		c1.12,0.42,0.84,1.96,0.7,2.8c-0.84,1.82-3.23,1.96-4.49,3.51c-1.26,1.68-0.98,3.79-1.12,5.75c-0.14,17.25,0,34.64,0.14,51.89
		c-3.37,0-6.73,0-9.96,0c0-17.81,0-35.62,0-53.57C364.02,153.05,364.02,145.05,364.16,136.92z"/>
	<path id="XMLID_7_" class="st0" d="M311.85,139.86c0.42,0,0.98-0.28,1.4-0.14c2.52,3.65,5.47,7.01,8.83,9.96
		c0.84,0.84,2.66,1.12,2.38,2.66c0.28,1.82-1.4,2.8-2.66,3.79c-1.68,1.12-1.82,3.37-1.82,5.19c-0.14,11.92,0,23.84,0,35.76
		c3.65,3.65,7.15,7.43,10.8,11.08c3.51-3.51,6.87-7.15,10.38-10.66c0.42-0.28,0.42-0.84,0.42-1.4c0-10.94,0.28-21.88,0.14-32.82
		c-0.14-1.96,0.28-4.21-0.7-6.03c-0.84-1.54-3.09-1.82-3.65-3.65c-0.14-0.98-0.42-2.24,0.56-2.8c1.82-0.98,3.23-2.52,4.63-3.93
		c2.1-2.24,4.21-4.63,5.89-7.29c0.42,0,0.98,0.14,1.4,0.14c0.14,20.47,0,40.95,0,61.56c-2.95,3.09-5.75,6.17-8.69,9.12
		c-1.26,1.54-2.8,2.8-4.07,4.35c3.51,3.51,7.01,7.01,10.52,10.52c-5.61,5.61-11.22,11.22-16.83,16.83
		c-5.61-5.61-11.22-11.22-16.83-16.83c3.51-3.51,7.01-7.01,10.52-10.52c-4.07-4.35-8.55-8.27-12.62-12.62
		c-0.14-0.84-0.14-1.54-0.14-2.38C311.85,179.97,311.85,159.92,311.85,139.86 M323.63,225.41c2.52,2.38,4.91,4.91,7.29,7.29
		c2.38-2.38,4.91-4.91,7.29-7.29c-2.38-2.38-4.77-4.91-7.29-7.29C328.4,220.36,326.02,222.88,323.63,225.41z"/>
	<path id="XMLID_8_" class="st0" d="M277.63,146.59c0.28-0.42,0.7,0,0.84,0.28c2.38,2.38,4.63,4.63,7.01,6.87
		c-0.84,1.12-1.82,1.96-2.8,2.94c-1.54,1.54-3.09,3.09-4.63,4.63c-0.14,0-0.28-0.14-0.42-0.14c-2.38-2.38-4.77-4.91-7.29-7.29
		C272.72,151.36,275.25,148.98,277.63,146.59z"/>
	<path id="XMLID_9_" class="st0" d="M286.47,153.61c2.38-2.52,4.91-4.77,7.15-7.29c2.52,2.52,5.19,5.05,7.57,7.57
		c-2.52,2.52-5.05,5.05-7.57,7.57c-2.24-2.24-4.63-4.63-6.87-6.87C286.61,154.17,286.05,153.89,286.47,153.61z"/>
	<path id="XMLID_10_" class="st0" d="M119.73,159.36c2.24,1.54,4.07,3.79,5.89,5.75c1.82,1.96,3.51,4.21,6.17,5.05
		c0.14,1.12,0.28,2.38-0.7,3.23c-0.98,0.98-2.38,1.54-2.95,2.8c-0.56,0.98-0.56,2.24-0.56,3.23c17.53,0,35.06,0,52.59,0
		c1.82,0,3.65,0.28,5.05,1.54c1.4,1.26,1.96,3.23,1.96,5.05c0,1.12-0.28,2.1-0.28,3.23c0,10.38,0,20.61,0,30.99
		c0,0.98,0.14,2.1-0.42,2.95c-2.24,4.35-6.73,7.15-11.5,7.85c-4.49,0.7-9.4,0.42-13.18-2.1c-2.1-1.4-3.65-3.37-4.63-5.61
		c-0.28-0.56-0.28-1.26-0.28-1.82c0-2.24,0-4.63,0-6.87c-12.2,0-24.4,0-36.6,0c0-3.51,0-6.87,0-10.38c14.44,0,28.89,0,43.19,0
		c0,4.49,0,8.98,0,13.46c1.12,2.24,3.51,3.65,5.89,4.21c1.68,0.28,3.65,0.28,5.19-0.7c1.54-1.12,2.24-2.95,2.24-4.77
		c0-7.99,0-15.99,0-23.98c0-2.38-2.66-3.65-4.77-3.79c-17.53,0-34.92,0-52.45,0C119.73,178.99,119.73,169.17,119.73,159.36z"/>
	<path id="XMLID_11_" class="st0" d="M34.18,265.52c5.75-1.12,11.64-1.12,17.53-1.12c9.82,0,19.77,0,29.59,0.14
		c-3.65,4.35-7.29,8.83-10.94,13.18c-0.84,0-1.82,0-2.66,0c0.14-0.7,0.14-1.4,0.28-1.96c-0.84-0.14-1.68-0.28-2.52-0.28
		c-4.63,0-9.4,0-14.02,0c-3.37,0.14-6.87-0.14-10.1,0.56c-6.59,0.7-13.18,3.09-17.95,7.71c-4.07,3.93-6.59,9.68-5.89,15.43
		c2.52-3.51,4.77-7.15,7.29-10.66c9.4,0,18.79,0,28.19,0c6.31,0.14,12.76,0,19.07,0.14c7.29,0,14.44,0,21.74,0
		c-3.65,4.49-7.15,8.98-10.8,13.32c-0.98,0-1.82,0-2.8,0c0.14-0.7,0.14-1.4,0.28-2.1c-1.54-0.42-3.09-0.28-4.49-0.28
		c-19.49,0-38.99-0.14-58.48-0.14c0.56,4.63,2.94,8.98,6.45,12.06c4.49,3.93,10.38,5.75,16.13,6.59c8.27,1.26,16.69,0.84,24.96,0.84
		c11.22,0,22.3,0,33.52,0c1.82-0.14,3.23-1.54,4.77-2.24c1.4-0.14,2.66,0,4.07,0c-3.65,4.49-7.43,8.98-11.08,13.32
		c-12.2,0-24.54,0-36.74-0.14c-7.99,0-15.99,0.14-23.98-0.84c-6.45-0.84-12.9-2.8-18.65-6.03c-4.63-2.52-8.98-5.75-12.2-10.1
		c-6.45-8.55-6.31-21.18-0.28-30.01c3.09-4.63,7.29-8.27,11.92-10.94C21.98,268.88,27.87,266.5,34.18,265.52z"/>
	<path id="XMLID_12_" class="st0" d="M76.39,277.02c3.37-4.21,6.73-8.27,9.96-12.48c33.1,0.14,66.19,0.14,99.29,0.28
		c-3.51,4.21-7.01,8.55-10.52,12.76c-0.7,0.98-1.96,0.42-2.94,0.56c0-0.7,0-1.4-0.14-2.1c-7.57-0.28-15.01,0-22.58-0.14
		c-3.79,0-7.43,0-11.22,0c0,16.69-0.14,33.52-0.14,50.21c0.84,0.56,1.82,1.12,2.66,1.68c0,0.84,0,1.68,0,2.66
		c-7.29,0-14.58,0-21.88,0c0-0.84,0-1.68,0-2.52c0.84-0.56,1.82-0.98,2.66-1.82c0.28-0.98,0.14-2.1,0.14-3.09
		c0.14-15.71,0.14-31.27,0.14-46.98c-12.2,0-24.26,0-36.46-0.14c-2.24-0.14-4.07,1.54-6.03,2.38
		C78.36,277.58,77.37,277.3,76.39,277.02z"/>
	<path id="XMLID_13_" class="st0" d="M189.14,264.67c7.29,0,14.44,0,21.74,0c0,0.84,0,1.68,0,2.52c-0.84,0.84-2.8,1.26-2.52,2.8
		c0,18.65,0.14,37.44,0,56.1c0.84,0.56,1.54,1.12,2.38,1.68c0,0.84,0,1.68,0,2.52c-7.29-0.14-14.44,0-21.74-0.14
		c0-0.84,0-1.68,0-2.52c0.84-0.7,2.1-1.12,2.66-1.96c0.28-8.27,0-16.41,0.14-24.68c0-10.66,0.14-21.18,0-31.83
		c-0.84-0.84-1.82-1.26-2.8-1.96C189.14,266.36,189.14,265.52,189.14,264.67z"/>
	<path id="XMLID_14_" class="st0" d="M215.79,264.81c7.29,0,14.58,0,21.88,0c0,0.84,0,1.68,0,2.52c-0.98,0.7-1.96,1.12-2.8,1.82
		c-0.14,9.68,0,19.35,0,29.03c2.8-3.37,5.47-6.87,8.13-10.24c6.17-0.14,12.34,0.14,18.37,0c7.99,0,15.99,0,24.12,0
		c0-6.31,0-12.48,0-18.79c-0.98-0.56-1.82-1.26-2.8-1.82c0-0.84,0-1.68,0-2.52c7.29,0,14.58,0,21.88,0c0,0.84,0,1.68,0,2.52
		c-0.84,0.56-1.82,0.98-2.52,1.68c-0.28,0.42-0.14,0.98-0.14,1.54c0.14,11.92,0.14,23.84,0.14,35.62
		c-5.61,5.89-11.08,11.92-16.69,17.81c0-8.27,0.14-16.69,0.28-24.96c-6.03-0.14-11.92,0-17.95-0.14c-8.69,0-17.39-0.14-26.22,0
		c-2.1,0.14-3.51,1.68-5.33,2.38c-0.42-0.14-0.84-0.14-1.12-0.28c0,8.27,0,16.69,0,24.96c0.84,0.56,1.68,1.12,2.52,1.68
		c0,0.84,0,1.68,0,2.52c-7.29,0-14.58,0-21.74,0c0-0.84,0-1.68,0-2.38c0.7-0.98,2.66-1.12,2.66-2.66c0-18.79,0-37.58-0.14-56.38
		c-0.84-0.56-1.68-0.98-2.38-1.54C215.79,266.5,215.79,265.66,215.79,264.81z"/>
	<path id="XMLID_15_" class="st0" d="M336.95,274.91c3.09-3.37,6.45-6.73,9.68-10.1c20.9,22.02,41.79,44.03,62.69,66.05
		c-8.27,0-16.55,0-24.82,0c0-0.98,0-1.96,0-3.09c0.84,0,1.82,0,2.66-0.14c-6.31-7.01-12.9-13.6-19.21-20.47
		c-0.42-0.28-0.7-0.84-1.26-0.84c-9.96-0.14-20.05,0-30.01-0.14c-1.4-0.14-2.66,0.84-3.93,1.54c-0.84-0.42-1.82-0.84-2.66-1.4
		c2.52-2.8,5.05-5.61,7.57-8.27c0.84-0.84,1.54-1.82,2.52-2.52c5.47-0.14,11.08,0,16.55,0c-4.07-4.21-8.27-8.27-12.34-12.62
		C342,280.1,339.48,277.44,336.95,274.91z"/>
	<path id="XMLID_16_" class="st0" d="M402.3,265.1c17.39,0,34.64,0,52.03,0.14c7.29,0,14.73,0,22.02,1.12
		c5.75,0.84,11.36,2.24,16.55,4.91c4.63,2.38,8.83,5.47,12.2,9.54c3.51,4.21,5.89,9.26,6.59,14.72s-0.28,11.08-2.95,15.85
		c-2.38,4.35-6.17,7.71-10.24,10.52c-5.47,3.65-11.64,6.03-17.95,7.43c-6.59,1.26-13.46,1.4-20.19,1.54c-16.13,0-32.11,0-48.24-0.14
		c0-0.84,0-1.68,0-2.52c0.98-0.7,2.8-1.12,2.66-2.66c0-15.85,0-31.69,0-47.68c5.47,0,10.94,0,16.55,0c0,13.88-0.14,27.91,0,41.79
		c9.54,0,19.07,0,28.61,0c6.17,0,12.48-0.42,18.51-2.1c4.77-1.4,9.12-4.07,12.34-7.71c4.49-5.19,5.33-13.04,2.52-19.35
		c-2.24-4.91-6.73-8.55-11.5-10.94c-6.03-2.66-12.62-3.09-19.07-3.37c-19.21-0.14-38.57-0.14-57.92-0.14c0-2.24,0-4.63,0-6.87
		c-0.84-0.56-1.68-1.12-2.52-1.68C402.3,266.78,402.3,265.94,402.3,265.1z"/>
	<path id="XMLID_17_" class="st0" d="M289.55,324c15.15-15.85,30.43-31.55,45.58-47.4c3.23,3.37,6.45,6.73,9.54,10.24
		c-13.04,13.46-26.22,27.07-39.27,40.53c0.7,0.14,1.54,0.14,2.38,0.14c0,0.98,0,1.96,0,2.94c-8.13,0-16.27,0-24.4-0.14
		C285.21,328.2,287.45,326.24,289.55,324z"/>
	<path id="XMLID_20_" class="st0" d="M106.96,354.71c0.28,0,0.56,0,0.98,0c1.82,4.91,3.79,9.82,5.61,14.87
		c0.28,0.7,0.56,1.54,1.12,2.1c0.56,0.56,1.4,0.7,2.1,0.98c0,0.42,0,0.84,0,1.4c-3.23,0-6.31,0-9.54,0c0-0.42,0-0.84,0-1.4
		c0.7-0.28,1.96-0.14,2.1-0.98c-0.14-1.54-0.84-2.95-1.4-4.35c-1.68,0-3.37,0-5.05,0c-0.42,1.54-1.4,3.23-0.84,4.77
		c0.84,0.42,1.82,0.42,2.66,0.56c0,0.42,0,0.98,0,1.4c-2.94,0-5.75,0-8.69,0c0-0.42,0-0.98,0-1.4c0.98-0.28,2.1-0.56,2.52-1.68
		c1.82-4.21,3.65-8.27,5.33-12.48c0.28-0.56,0.14-1.12,0-1.54C105.42,356.39,106.26,355.69,106.96,354.71 M105.42,360.74
		c-0.56,1.26-0.98,2.66-1.54,4.07c1.12,0,2.24,0,3.37,0c-0.56-1.4-0.98-2.8-1.68-4.07H105.42z"/>
	<path id="XMLID_23_" class="st0" d="M307.78,357.37c1.12-0.42,1.96-1.26,2.66-2.1c0.14,0,0.56-0.14,0.7-0.14
		c1.96,5.05,3.93,10.24,5.89,15.29c0.28,0.56,0.56,1.26,1.12,1.82c0.56,0.42,1.4,0.7,2.1,0.98c0,0.42,0,0.84,0,1.4
		c-3.09,0-6.31,0-9.4,0c0-0.42,0-0.84,0-1.4c0.7-0.14,1.54-0.42,2.24-0.84c-0.14-1.68-0.84-3.23-1.4-4.77c-1.68,0-3.37,0-5.05,0
		c-0.42,1.54-1.4,3.09-0.98,4.63c0.84,0.7,1.82,0.56,2.8,0.84c0,0.42,0,0.98,0,1.4c-2.95-0.14-5.75,0-8.69,0c0-0.42,0-0.84,0-1.26
		c0.84-0.28,2.1-0.42,2.38-1.54c1.82-4.21,3.65-8.41,5.47-12.62C308.06,358.35,307.78,357.79,307.78,357.37 M307.36,365.23
		c1.12,0,2.24,0,3.37,0c-0.56-1.4-1.12-2.95-1.68-4.35C308.35,362.28,307.92,363.82,307.36,365.23z"/>
	<path id="XMLID_24_" class="st0" d="M149.32,355.97c3.65,0,7.15,0,10.8,0c0,0.42,0,0.98,0,1.4c-0.98,0.28-2.66,0.14-3.09,1.26
		c-0.42,1.68-0.14,3.51-0.28,5.19c0.14,2.38-0.28,4.91,0.14,7.29c0.42,1.4,2.1,1.12,3.23,1.4c0,0.42,0,0.84,0,1.4
		c-3.65,0-7.15,0-10.8,0c0-0.42,0-0.98,0-1.4c0.98-0.14,1.96-0.14,2.8-0.7c0.56-0.7,0.42-1.54,0.56-2.24c0-3.09,0-6.17,0-9.26
		c0-0.7,0-1.68-0.56-2.24c-0.84-0.56-1.82-0.56-2.8-0.84C149.32,356.81,149.32,356.39,149.32,355.97z"/>
	<path id="XMLID_27_" class="st0" d="M193.63,355.97c2.95,0,5.89,0,8.83,0c1.82,0,3.93,0.14,5.47,1.12
		c1.96,1.26,2.24,4.21,0.84,6.03c-0.56,0.7-1.4,1.26-2.24,1.68c1.68,3.65,4.35,7.43,8.55,8.27c-0.14,0.42-0.14,0.84-0.28,1.4
		c-2.52-0.14-5.19,0.14-7.29-1.26c-2.1-1.54-3.23-4.07-4.49-6.31c-0.42-0.7-1.26-0.7-1.96-0.98c0,1.68-0.14,3.51,0.14,5.19
		c0.56,1.4,2.38,1.4,3.65,1.54c0,0.42,0,0.98,0,1.4c-3.79,0-7.57,0-11.36,0c0-0.42,0-0.98,0-1.4c0.98-0.14,1.96-0.14,2.66-0.7
		c0.56-0.56,0.56-1.4,0.56-2.1c0-3.23,0-6.31,0-9.54c0-0.7,0-1.68-0.56-2.24c-0.84-0.56-1.82-0.56-2.8-0.7
		C193.63,356.95,193.63,356.53,193.63,355.97 M201.06,357.65c0,2.24,0,4.35,0,6.59c0.98-0.14,1.96-0.42,2.66-0.98
		c1.4-0.98,1.68-3.23,0.56-4.49C203.45,357.93,202.19,357.79,201.06,357.65z"/>
	<path id="XMLID_28_" class="st0" d="M244.54,356.11c2.95,0,5.75,0,8.69,0c0,0.42,0,0.84,0,1.4c-0.56,0.14-1.12,0.28-1.68,0.56
		c-0.7,0.56-0.28,1.26-0.14,1.96c0.84,2.38,1.4,4.91,2.24,7.43c0.84-2.52,1.96-5.19,2.66-7.71c-0.14-1.26-1.54-1.96-2.66-2.24
		c0-0.42,0-0.84,0-1.4c2.94,0,6.03,0,8.98,0c0,0.42,0,0.98,0,1.4c-0.7,0.28-1.54,0.28-2.1,0.84c-0.14,0.84,0.14,1.68,0.42,2.52
		c0.7,2.24,1.4,4.63,2.1,6.87c0.84-2.95,2.1-5.75,2.52-8.69c0.14-1.12-1.4-1.12-2.24-1.54c0-0.42,0-0.84,0-1.4c2.52,0,5.05,0,7.71,0
		c0,0.42,0,0.84,0,1.26c-1.26,0.28-2.52,0.98-2.95,2.24c-1.96,4.91-3.65,9.96-5.47,15.01c-0.56-0.14-0.98-0.28-1.54-0.28
		c-1.26-3.93-2.38-7.85-3.65-11.64c-1.4,3.93-2.8,7.85-4.21,11.92c-0.56,0-1.12-0.14-1.68-0.14c-1.4-4.35-2.66-8.55-4.07-12.9
		c-0.28-0.98-0.56-2.1-1.12-2.95c-0.42-0.7-1.26-0.84-1.96-1.12C244.54,356.95,244.54,356.53,244.54,356.11z"/>
	<path id="XMLID_29_" class="st0" d="M404.83,357.65c2.66-2.1,6.59-1.96,9.54-0.28c-0.14,1.68-0.28,3.37-0.28,5.05
		c-0.42,0-0.98,0-1.4,0c-0.42-1.54-0.7-3.51-2.38-4.21c-1.26-0.56-2.95,0.14-3.23,1.54c-0.28,1.12,0.42,2.24,1.4,2.95
		c1.82,1.4,4.21,1.96,5.75,3.79c1.68,1.82,1.4,5.05-0.42,6.73c-1.68,1.54-4.21,1.96-6.45,1.96c-1.68-0.14-3.51-0.42-4.77-1.54
		c-0.42-1.82-0.56-3.65-0.98-5.47c0.42-0.14,0.98-0.14,1.4-0.28c0.7,1.82,1.54,3.51,3.09,4.63c1.12,0.7,2.66,0.98,3.93,0.28
		c1.26-0.84,1.26-2.8,0.28-3.79c-1.96-1.82-4.91-2.38-6.73-4.49C402.16,362.28,402.87,359.19,404.83,357.65z"/>
	<path id="XMLID_30_" class="st0" d="M349.86,357.79c0-0.42,0-0.98,0-1.4c3.23,0,6.45,0,9.54,0c0,0.42,0,0.98,0,1.4
		c-0.7,0.14-1.4,0.42-1.96,0.56c0.42,2.24,1.68,4.21,2.66,6.17c0.7-1.26,1.26-2.52,1.96-3.79c0.28-0.7,0.56-1.4,0.42-2.24
		c-0.56-0.42-1.26-0.56-1.82-0.7c0-0.42,0-0.98-0.14-1.4c2.8,0,5.47,0,8.27,0c0,0.42,0,0.98,0,1.4c-0.98,0.28-2.1,0.42-2.95,1.12
		c-0.84,0.7-1.4,1.68-1.82,2.52c-0.84,1.54-1.68,3.23-2.52,4.77c-0.42,0.84-0.28,1.82-0.28,2.8c0,1.12-0.14,2.24,0.56,3.23
		c0.84,0.84,2.1,0.84,3.23,0.98c0,0.42,0,0.98,0,1.4c-3.79,0-7.71,0-11.5,0c0-0.42,0-0.98,0-1.4c1.26-0.28,3.37,0,3.51-1.82
		c0.14-1.68,0.56-3.65-0.42-5.05c-0.84-1.68-1.68-3.37-2.52-5.19c-0.42-0.84-0.84-1.68-1.54-2.24
		C351.68,358.21,350.7,357.93,349.86,357.79z"/>
</g>
</svg>
